# xmcd
# 
# Track frame offsets:
#     150
#     14459
#     28302
#     40973
#     55849
#     70157
#     76133
#     87394
#     102233
#     112244
#     116683
#     130136
# 
# Disc length: 1889
# 
# Revision: 5
# Processed by: cddbd v1.5.2PL0 Copyright (c) Steve Scherf et al.
# Submitted via: fre:ac v1.0.17
# 
DISCID=a3075f0c
DTITLE=Leadbelly - You Do Me Any Old Way - CD1
DYEAR=0
DGENRE=Blues
TTITLE0=Roberta
TTITLE1=Where Did You Sleep Last Night
TTITLE2=Pretty Flower in Your Backyard
TTITLE3=In New Orleans
TTITLE4=Yellow Gal
TTITLE5=Big Fat Woman
TTITLE6=I've Got a Pretty Flower
TTITLE7=John Hardy
TTITLE8=How Long
TTITLE9=Line Em
TTITLE10=When the Boys Were On Three Western Plains
TTITLE11=Goodnight Irene
EXTD=
EXTT0=
EXTT1=
EXTT2=
EXTT3=
EXTT4=
EXTT5=
EXTT6=
EXTT7=
EXTT8=
EXTT9=
EXTT10=
EXTT11=
PLAYORDER=
